<?xml version="1.0" encoding="UTF-8" standalone="no"?>
<svg
   xmlns:dc="http://purl.org/dc/elements/1.1/"
   xmlns:cc="http://creativecommons.org/ns#"
   xmlns:rdf="http://www.w3.org/1999/02/22-rdf-syntax-ns#"
   xmlns:svg="http://www.w3.org/2000/svg"
   xmlns="http://www.w3.org/2000/svg"
   xmlns:sodipodi="http://sodipodi.sourceforge.net/DTD/sodipodi-0.dtd"
   xmlns:inkscape="http://www.inkscape.org/namespaces/inkscape"
   width="142.06947mm"
   height="142.06947mm"
   viewBox="0 0 142.06948 142.06947"
   version="1.1"
   id="svg8"
   inkscape:version="1.0.1 (3bc2e813f5, 2020-09-07)"
   sodipodi:docname="logo_bw.svg">
  <defs
     id="defs2" />
  <sodipodi:namedview
     id="base"
     pagecolor="#ffffff"
     bordercolor="#666666"
     borderopacity="1.0"
     inkscape:pageopacity="0.0"
     inkscape:pageshadow="2"
     inkscape:zoom="0.98994949"
     inkscape:cx="96.588018"
     inkscape:cy="480.84928"
     inkscape:document-units="mm"
     inkscape:current-layer="layer1"
     showgrid="false"
     inkscape:window-width="1920"
     inkscape:window-height="2091"
     inkscape:window-x="6400"
     inkscape:window-y="32"
     inkscape:window-maximized="0"
     fit-margin-top="0"
     fit-margin-left="0"
     fit-margin-right="0"
     fit-margin-bottom="0"
     inkscape:document-rotation="0" />
  <metadata
     id="metadata5">
    <rdf:RDF>
      <cc:Work
         rdf:about="">
        <dc:format>image/svg+xml</dc:format>
        <dc:type
           rdf:resource="http://purl.org/dc/dcmitype/StillImage" />
        <dc:title></dc:title>
      </cc:Work>
    </rdf:RDF>
  </metadata>
  <g
     inkscape:label="Layer 1"
     inkscape:groupmode="layer"
     id="layer1"
     transform="translate(285.77828,76.225347)">
    <path
       style="fill:#898989;fill-opacity:1;stroke:none;stroke-width:0.042;stroke-linecap:square;stroke-opacity:1"
       d="m -147.3771,-18.132739 a 45,45 0 0 1 -45,45 45,45 0 0 1 -45,-45 45,45 0 0 1 45,-45.000002 45,45 0 0 1 45,45.000002 z"
       id="path831-7-2" />
    <path
       style="fill:#898989;fill-opacity:1;stroke:#000000;stroke-width:0.042;stroke-linecap:square;stroke-opacity:1"
       d="m -192.3771,-18.206399 a 45,45 0 0 1 -45,45 45,45 0 0 1 -45,-45 45,45 0 0 1 45,-45.000002 45,45 0 0 1 45,45.000002 z"
       id="path831-9" />
    <path
       style="fill:#898989;fill-opacity:1;stroke:none;stroke-width:0.042;stroke-linecap:square;stroke-opacity:1"
       d="m -192.6334,59.659041 a 45,45 0 0 1 -61.47114,-16.47114 45,45 0 0 1 16.47114,-61.47114 45,45 0 0 1 61.47114,16.4711402 45,45 0 0 1 -16.47114,61.4711398 z"
       id="path831-7-5-1" />
    <path
       id="path958-0-2-5-2"
       style="fill:#a9a9a9;fill-opacity:1;stroke:none;stroke-width:0.042;stroke-linecap:square;stroke-opacity:1"
       d="m -192.3771,-18.206399 a 45,45 0 0 0 0.001,-0.29651 45,45 0 0 0 -22.43761,-38.93496 45,45 0 0 0 -16.72836,16.61852 45,45 0 0 0 -6.02905,22.42639 45,45 0 0 1 44.93606,0.0366 45,45 0 0 1 0.25772,0.14995 z" />
    <path
       id="path958-0-7-9-7"
       style="fill:#a9a9a9;fill-opacity:1;stroke:none;stroke-width:0.042;stroke-linecap:square;stroke-opacity:1"
       d="m -192.50526,-18.503029 a 45,45 0 0 1 0.25735,0.14727 45,45 0 0 1 22.49992,38.89892 45,45 0 0 1 -22.75624,6.17792 45,45 0 0 1 -22.43635,-5.99188 45,45 0 0 0 22.43635,-38.93406 45,45 0 0 0 -0.001,-0.29817 z" />
    <path
       id="path831-2-0"
       style="fill:#cecece;fill-opacity:1;stroke:none;stroke-width:0.042;stroke-linecap:square;stroke-opacity:1"
       d="m -215.19279,-24.384319 a 45,45 0 0 0 -22.18314,5.8818 45,45 0 0 0 -10e-4,0.29765 45,45 0 0 0 22.43635,38.93407 45,45 0 0 0 22.56348,-38.9356 45,45 0 0 0 -22.81566,-6.17792 z" />
    <path
       id="path958-0-7-9-2-9"
       style="fill:#a9a9a9;fill-opacity:1;stroke:none;stroke-width:0.042;stroke-linecap:square;stroke-opacity:1"
       d="m -237.3759,-18.502519 a 45,45 0 0 0 -0.25735,0.14727 45,45 0 0 0 -22.49992,38.89892 45,45 0 0 0 22.75624,6.17792 45,45 0 0 0 22.43635,-5.99188 45,45 0 0 1 -22.43635,-38.93406 45,45 0 0 1 10e-4,-0.29817 z" />
  </g>
</svg>
