<svg xmlns="http://www.w3.org/2000/svg" viewBox="0 0 569.87 217.53"><defs><style>.cls-1{isolation:isolate;}.cls-2{fill:#e05d11;}.cls-2,.cls-3,.cls-5,.cls-6{opacity:0.9;}.cls-2,.cls-3,.cls-4,.cls-5,.cls-6{mix-blend-mode:luminosity;}.cls-3{fill:#589ebc;}.cls-4{fill:#50bfd5;}.cls-5{fill:#8f9aa8;}.cls-6{fill:#ffe20f;}.cls-7{fill:#333;}</style></defs><g class="cls-1"><g id="Calque_1" data-name="Calque 1"><path class="cls-2" d="M162.83,154.68A59.46,59.46,0,1,1,84.73,98.2a59.53,59.53,0,0,0,76.87,44.39A59.38,59.38,0,0,1,162.83,154.68Z"/><path class="cls-3" d="M161.6,142.59a59.55,59.55,0,0,1-58.22-12.11A59.48,59.48,0,0,0,122,98.2,59.54,59.54,0,0,1,161.6,142.59Z"/><path class="cls-4" d="M202.43,86.11a59.5,59.5,0,0,1-40.83,56.48A59.49,59.49,0,0,0,84.73,98.2a59.47,59.47,0,1,1,117.7-12.09Z"/><path class="cls-5" d="M122,98.2a59.48,59.48,0,0,1-18.64,32.28A59.34,59.34,0,0,1,84.73,98.2a59.63,59.63,0,0,1,37.29,0Z"/><path class="cls-6" d="M103.37,95.21a59.22,59.22,0,0,0-18.64,3,59.34,59.34,0,0,0,18.65,32.28A59.31,59.31,0,1,1,122,98.2,59.33,59.33,0,0,0,103.37,95.21Z"/><path class="cls-7" d="M254.19,154.61a17,17,0,0,0,11.25-3.79,13.32,13.32,0,0,0,4.92-9.8h6.18a18.14,18.14,0,0,1-3.34,9.69,20.87,20.87,0,0,1-8.13,6.85A24.51,24.51,0,0,1,254.19,160q-11.44,0-18.13-7.95t-6.68-21.38v-1.93a36.39,36.39,0,0,1,3-15.2,23.14,23.14,0,0,1,8.63-10.2,23.76,23.76,0,0,1,13.13-3.6q9.56,0,15.76,5.69t6.64,15h-6.18a15.55,15.55,0,0,0-16.22-15.2q-8.7,0-13.51,6.28t-4.81,17.62V131q0,11.11,4.81,17.35T254.19,154.61Z"/><path class="cls-7" d="M285.83,129A34.1,34.1,0,0,1,289.08,114a24.39,24.39,0,0,1,22.64-14.18q11.59,0,18.8,8.13t7.19,21.57v1.34A34.43,34.43,0,0,1,334.46,146a24.23,24.23,0,0,1-9.16,10.4A25.12,25.12,0,0,1,311.82,160q-11.55,0-18.77-8.14t-7.22-21.56Zm6.44,1.77q0,10.42,5.4,17.11a18.26,18.26,0,0,0,28.25,0q5.4-6.69,5.4-17.65V129a29.51,29.51,0,0,0-2.47-12.19,19.87,19.87,0,0,0-6.93-8.57,17.71,17.71,0,0,0-10.2-3,17.15,17.15,0,0,0-14,6.74q-5.43,6.74-5.43,17.64Z"/><path class="cls-5" d="M342.37,151.33a7.81,7.81,0,0,1,2.5-6,9.69,9.69,0,0,1,12.56,0,7.81,7.81,0,0,1,2.5,6,7.69,7.69,0,0,1-2.47,5.93,9,9,0,0,1-6.34,2.29,8.85,8.85,0,0,1-6.28-2.29A7.69,7.69,0,0,1,342.37,151.33Z"/><path class="cls-7" d="M386.65,146h34.22v13H370.54V80.75h16.11Z"/><path class="cls-7" d="M475.28,142.84H447L441.65,159H424.52l29.11-78.21h14.93L497.84,159H480.7Zm-23.91-13.05h19.56l-9.83-29.27Z"/><path class="cls-7" d="M505.14,159V80.75h27.39q14.24,0,21.59,5.45t7.36,16a17.66,17.66,0,0,1-3,10.13,17.06,17.06,0,0,1-8.22,6.42,16.47,16.47,0,0,1,9.48,6.07A17.92,17.92,0,0,1,563.26,136q0,11.28-7.2,17.08T535.54,159Zm16.11-45.44h11.93q12.18-.22,12.19-9.73,0-5.31-3.09-7.65t-9.75-2.34H521.25Zm0,11.38V146h13.81c3.79,0,6.76-.9,8.89-2.71a9.31,9.31,0,0,0,3.19-7.49q0-10.74-11.12-10.91Z"/></g></g></svg>