<?xml version="1.0" encoding="UTF-8" standalone="no"?>
<svg
  version="1.1"
  id="angry-monkey"
  viewBox="0 0 377 388"
  xml:space="preserve"
  xmlns="http://www.w3.org/2000/svg"
  xmlns:svg="http://www.w3.org/2000/svg"><defs
  id="defs145" />
<g id="g140" transform="translate(-200.97441,-105.248)">
	<g id="g4"> <path
  fill="#d8b78b"
  d="m 514.385,294.685 c 1.003,7.233 2.435,31.765 10.742,35.76 26.907,12.938 36.341,-47.829 39.328,-62.465 2.977,-14.563 -1.146,-48.832 -23.245,-40.594 -0.727,0.27 -1.248,0.604 -1.626,0.975 -9.638,-4.158 -20.708,-3.09 -24.228,8.699 -5.217,17.471 -3.437,39.946 -0.971,57.625 z"
  id="path2" />
	</g>
	<g id="g8">
		<path fill="#d8b78b" d="m 263.355,237.06 c -3.514,-11.789 -14.589,-12.857 -24.232,-8.699 -0.368,-0.37 -0.89,-0.705 -1.616,-0.975 -22.099,-8.238 -26.227,26.03 -23.255,40.594 2.987,14.636 12.43,75.402 39.337,62.465 8.308,-3.995 9.735,-28.526 10.743,-35.76 2.456,-17.679 4.236,-40.154 -0.977,-57.625 z" id="path6" />
</g>
	<g id="g14">
 <path
  fill="#7f512e"
  d="m 539.093,262.757 c 0,-80.021 -66.869,-144.89 -149.361,-144.89 -82.481,0 -149.351,58.781 -149.351,144.89 0,160.794 66.869,144.888 149.351,144.888 82.492,0 149.361,15.906 149.361,-144.888 z"
  id="path10" />
		<path
  d="m 429.1,410.698 v 0 c -6.158,0 -12.471,-0.104 -18.911,-0.212 -13.387,-0.221 -27.542,-0.221 -40.908,0 -6.44,0.107 -12.753,0.212 -18.912,0.212 -63.8,0 -112.606,-10.894 -112.606,-147.941 0,-84.093 65.334,-147.509 151.97,-147.509 83.801,0 151.98,66.174 151.98,147.509 0,63.381 -10.165,103.054 -31.992,124.853 -19.251,19.224 -45.125,23.088 -80.621,23.088 z m -39.368,-5.673 c 6.967,0 13.827,0.112 20.544,0.225 6.41,0.105 12.696,0.21 18.824,0.21 34.161,0 58.945,-3.606 76.916,-21.557 20.779,-20.753 30.458,-59.249 30.458,-121.146 0,-78.448 -65.826,-142.271 -146.742,-142.271 -83.653,0 -146.732,61.163 -146.732,142.271 0,132.467 44.5,142.703 107.368,142.703 6.128,0 12.41,-0.104 18.825,-0.21 6.712,-0.112 13.572,-0.225 20.539,-0.225 z"
  id="path12" />
	</g>
	<g id="g20">
<path
  fill="#d8b78b"
  d="m 266.726,312.663 c 0,74.374 55.308,134.664 123.533,134.664 68.214,0 123.522,-60.29 123.522,-134.664 0,-74.376 -0.655,-168.41 -124.06,-139.13 -139.774,-29.28 -122.995,64.754 -122.995,139.13 z"
  id="path16" />
		<path
  d="m 390.259,450.473 c -69.851,0 -126.679,-61.82 -126.679,-137.81 0,-7.128 -0.153,-14.436 -0.312,-21.799 -0.854,-40.287 -1.734,-81.947 21.899,-106.085 19.868,-20.298 53.789,-24.986 104.514,-14.469 15.3,-3.589 29.337,-5.407 41.726,-5.407 85.52,0 85.52,85.402 85.52,147.76 0,75.989 -56.823,137.81 -126.668,137.81 z m -46.96,-279.275 c -24.242,0 -41.788,5.883 -53.636,17.985 -21.781,22.245 -20.927,62.56 -20.104,101.547 0.159,7.407 0.312,14.761 0.312,21.933 0,72.519 54.004,131.519 120.387,131.519 66.373,0 120.376,-59 120.376,-131.519 0,-63.027 0,-141.465 -79.228,-141.465 -12.083,0 -25.863,1.815 -40.959,5.396 l -0.686,0.164 -0.686,-0.146 c -17.155,-3.592 -32.553,-5.414 -45.776,-5.414 z"
  id="path18" />
	</g>
	<g id="g26">
		<path
  fill="#ffffff"
  d="m 364.738,272.535 c 0,-24.689 -15.643,-44.706 -34.949,-44.706 -19.295,0 -34.943,20.017 -34.943,44.706 0,24.692 15.648,44.709 34.943,44.709 19.306,0 34.949,-20.016 34.949,-44.709 z"
  id="path22" />
		<path
  d="m 329.789,319.863 c -20.712,0 -37.563,-21.231 -37.563,-47.328 0,-26.097 16.85,-47.325 37.563,-47.325 20.713,0 37.568,21.229 37.568,47.325 0,26.096 -16.855,47.328 -37.568,47.328 z m 0,-89.415 c -17.822,0 -32.324,18.881 -32.324,42.087 0,23.209 14.502,42.09 32.324,42.09 17.828,0 32.33,-18.881 32.33,-42.09 0,-23.206 -14.502,-42.087 -32.33,-42.087 z"
  id="path24" />
	</g>
	<g
  id="g38">
		<g
  id="g30">
			<path
  fill="#ffffff"
  d="m 450.268,326.895 c -24.585,0 -44.591,-24.386 -44.591,-54.359 0,-38.883 33.567,-38.883 44.596,-38.883 11.029,0 44.597,0 44.597,38.883 -10e-4,29.973 -20.007,54.359 -44.602,54.359 z"
  id="path28" />
		</g>
		<g
  id="g36">
			<g
  id="g34">
				<path
  fill="#570d59"
  d="m 450.272,243.303 c 19.306,0 34.944,4.543 34.944,29.232 0,24.692 -15.644,44.709 -34.949,44.709 -19.295,0 -34.938,-20.017 -34.938,-44.709 10e-4,-24.689 15.649,-29.232 34.943,-29.232 m 0,-19.303 c -47.199,0 -54.243,30.408 -54.243,48.535 0,35.297 24.329,64.012 54.238,64.012 29.915,0 54.25,-28.715 54.25,-64.012 C 504.518,254.408 497.473,224 450.272,224 Z"
  id="path32" />
			</g>
		</g>
	</g>
	<g
  id="g42">
		<path
  d="m 317.983,288.051 c 0,12.169 6.313,22.034 14.098,22.034 7.791,0 14.103,-9.865 14.103,-22.034 0,-12.168 -6.313,-22.032 -14.103,-22.032 -7.786,0 -14.098,9.864 -14.098,22.032 z"
  id="path40" />
	</g>
	<g
  id="g46">
		<path
  d="m 433.223,288.051 c 0,12.169 6.313,22.034 14.099,22.034 7.796,0 14.108,-9.865 14.108,-22.034 0,-12.168 -6.313,-22.032 -14.108,-22.032 -7.787,0 -14.099,9.864 -14.099,22.032 z"
  id="path44" />
	</g>
	<g
  id="g52">
		<path
  fill="#d8b78b"
  d="m 542.807,389.293 c 0,50.722 -68.537,91.84 -153.069,91.84 -84.533,0 -153.064,-41.118 -153.064,-91.84 0,-50.72 68.532,-91.838 153.064,-91.838 84.532,0 153.069,41.118 153.069,91.838 z"
  id="path48" />
		<path
  d="m 389.737,483.752 c -85.842,0 -155.684,-42.374 -155.684,-94.459 0,-52.083 69.841,-94.457 155.684,-94.457 85.847,0 155.688,42.374 155.688,94.457 0.001,52.085 -69.841,94.459 -155.688,94.459 z m 0,-183.678 c -82.958,0 -150.445,40.023 -150.445,89.219 0,49.197 67.488,89.221 150.445,89.221 82.957,0 150.45,-40.023 150.45,-89.221 10e-4,-49.195 -67.493,-89.219 -150.45,-89.219 z"
  id="path50" />
	</g>
	<g
  id="g56">
		<path
  fill="#ffffff"
  d="m 241.62,389.927 c 14.477,11.349 76.103,55.729 153.791,55.737 h 0.01 c 50.836,0 98.789,-18.75 142.628,-55.748 -43.809,-20.681 -91.781,-31.162 -142.639,-31.162 -77.11,0 -138.306,24.402 -153.79,31.173 z"
  id="path54" />
	</g>
	<g
  id="g60">
		<path
  d="m 395.426,450.902 c -0.005,0 -0.01,0 -0.021,0 -90.625,-0.008 -159.761,-59.034 -160.446,-59.631 l 0.568,-4.332 c 0.686,-0.335 69.611,-33.424 159.883,-33.424 53.063,0 103.04,11.246 148.542,33.424 l 0.567,4.332 c -45.629,39.567 -95.796,59.631 -149.093,59.631 z M 241.62,389.927 c 14.487,11.354 76.107,55.729 153.791,55.737 0,0 0.01,0 0.016,0 50.826,0 98.789,-18.75 142.623,-55.748 -43.809,-20.681 -91.776,-31.162 -142.639,-31.162 -77.06,0 -138.297,24.405 -153.791,31.173 z"
  id="path58" />
	</g>
	<g
  id="g94">
		<g
  id="g64">
			<path
  d="m 395.845,408.02 c -90.375,0 -158.758,-15.937 -159.781,-16.18 l 1.218,-5.095 c 1.519,0.362 154.241,35.918 304.885,0 l 1.218,5.095 c -50.895,12.137 -102.008,16.18 -147.54,16.18 z"
  id="path62" />
		</g>
		<g
  id="g68">
			<rect
  x="264.92499"
  y="377.24799"
  width="5.2379999"
  height="35.139"
  id="rect66" />
		</g>
		<g
  id="g72">
			<rect
  x="305.64899"
  y="367.16299"
  width="5.2379999"
  height="61.234001"
  id="rect70" />
		</g>
		<g
  id="g76">
			<rect
  x="343.55499"
  y="360.022"
  width="5.2379999"
  height="81.004997"
  id="rect74" />
		</g>
		<g
  id="g80">
			<rect
  x="511.16199"
  y="377.24799"
  width="5.2379999"
  height="35.139"
  id="rect78" />
		</g>
		<g
  id="g84">
			<rect
  x="470.27899"
  y="364.72101"
  width="5.5450001"
  height="68.662003"
  id="rect82" />
		</g>
		<g
  id="g88">
			<rect
  x="432.47101"
  y="360.022"
  width="5.3520002"
  height="84.550003"
  id="rect86" />
		</g>
		<g
  id="g92">
			<rect
  x="387.103"
  y="356.186"
  width="5.2379999"
  height="92.098"
  id="rect90" />
		</g>
	</g>
	<g
  id="g98">
		<path
  d="m 245.159,327.659 c -0.021,0.003 -2.465,0.567 -5.913,-1.545 -5.366,-3.284 -12.799,-12.638 -17.802,-38.742 -2.937,-10.898 -4.461,-19.723 -5.003,-26.866 -0.107,-1.43 -0.174,-2.79 -0.21,-4.087 -0.322,-12.978 2.982,-19.549 6.614,-22.863 5.791,-5.282 14.262,-4.067 18.19,-3.103 1.31,0.319 2.118,0.613 2.148,0.626 l 1.836,-4.908 c -0.634,-0.235 -15.566,-5.69 -25.674,3.486 -8.809,7.998 -10.661,24.253 -5.576,48.254 0.721,3.415 1.586,6.988 2.588,10.717 4.266,22.266 11.049,36.384 20.15,41.955 3.177,1.946 5.939,2.381 7.78,2.381 1.299,0 2.144,-0.22 2.333,-0.276 z"
  id="path96" />
	</g>
	<g
  id="g102">
		<path
  d="m 559.656,229.657 c -10.098,-9.174 -25.035,-3.722 -25.669,-3.486 l 1.831,4.908 c 0.123,-0.051 12.636,-4.56 20.339,2.477 0.368,0.33 0.727,0.695 1.085,1.095 4.941,5.594 8.584,18.192 1.893,46.543 -0.471,1.981 -0.992,4.038 -1.565,6.179 v 0 c -0.021,0.067 -0.03,0.123 -0.051,0.189 -4.891,25.569 -12.206,34.987 -17.485,38.384 -3.58,2.308 -6.138,1.727 -6.189,1.714 l -1.463,5.028 c 0.194,0.057 1.033,0.276 2.343,0.276 1.831,0 4.604,-0.438 7.775,-2.381 9.116,-5.581 15.899,-19.726 20.124,-41.85 8.082,-30.071 7.09,-49.947 -2.968,-59.076 z"
  id="path100" />
	</g>
	<g
  id="g106">
		<path
  d="m 292.938,227.479 c 0.138,2.943 2.803,-2.354 4.629,-4.039 3.1,-2.856 7.413,-5.174 11.75,-7.235 10.947,-5.197 24.186,-7.164 36.581,-7.423 2.553,-0.054 3.095,-16.009 -2.538,-15.889 -27.388,0.565 -57.472,12.213 -56.582,31.24 0.123,2.678 0.245,7.665 3.55,9.453 2.471,1.343 2.63,-5.77 2.61,-6.107 z"
  id="path104" />
	</g>
	<g
  id="g110">
		<path
  d="m 488.234,227.479 c -0.138,2.943 -2.803,-2.354 -4.629,-4.039 -3.101,-2.856 -7.412,-5.174 -11.75,-7.235 -10.947,-5.197 -24.187,-7.164 -36.581,-7.423 -2.553,-0.054 -3.095,-16.009 2.537,-15.889 27.389,0.565 57.473,12.213 56.582,31.24 -0.123,2.678 -0.245,7.665 -3.55,9.453 -2.47,1.343 -2.629,-5.77 -2.609,-6.107 z"
  id="path108" />
	</g>
	<g
  id="g114">
		<path
  d="m 324.868,380.617 c 0.829,-0.461 1.632,-0.688 2.583,-0.729 10.087,-0.422 10.169,-15.612 0,-15.715 -1.801,-0.018 -3.576,-0.021 -5.376,0.069 -1.279,0.164 -2.558,0.343 -3.832,0.54 -1.985,0.521 -2.01,0.686 -0.082,0.491 -5.243,-1.78 -9.463,2.815 -9.944,7.575 -0.256,2.563 0.333,5.095 0.317,7.673 -0.031,4.244 -0.466,8.638 -0.808,12.871 -0.369,4.529 3.867,7.52 7.857,7.857 6.758,0.57 13.837,0.91 20.339,2.992 3.775,1.21 8.967,-1.381 9.663,-5.486 0.844,-4.962 -0.2,-9.693 0.138,-14.684 0.158,-2.32 0.348,-4.556 0.24,-6.881 -0.062,-1.442 -0.66,-4.025 -0.025,-5.37 2.752,-5.829 -0.691,-11.006 -6.783,-11.822 -4.701,-0.629 -11.464,-0.305 -14.988,3.223 -4.251,4.248 -3.975,11.448 -6.855,16.466 -2.66,4.635 -0.071,9.865 4.696,11.541 2.25,0.793 4.491,0.714 6.834,0.609 10.093,-0.453 10.134,-16.17 0,-15.715 -0.839,0.038 -1.913,0.215 -2.66,-0.047 1.565,3.848 3.13,7.694 4.696,11.541 2.256,-3.929 3.658,-7.385 4.619,-11.834 1.059,-4.909 0.926,0.073 -1.934,0.059 1.908,0.01 3.688,-0.385 5.591,-0.129 -2.261,-3.94 -4.522,-7.882 -6.783,-11.821 -2.333,4.935 -2.292,9.527 -2.051,14.868 0.107,2.402 -0.281,4.85 -0.445,7.246 -0.185,2.791 1.018,5.87 0.558,8.57 3.223,-1.828 6.44,-3.657 9.663,-5.486 -7.771,-2.49 -16.426,-2.871 -24.514,-3.555 2.619,2.619 5.238,5.238 7.857,7.857 0.297,-3.647 0.338,-7.303 0.665,-10.947 0.297,-3.243 -0.496,-6.396 -0.174,-9.597 -3.315,2.524 -6.63,5.052 -9.944,7.576 4.348,1.476 8.932,-0.583 13.464,-0.537 0,-5.238 0,-10.477 0,-15.715 -3.78,0.159 -7.198,1.036 -10.512,2.873 -8.864,4.915 -0.94,18.485 7.93,13.573 z"
  id="path112" />
	</g>
	<g
  id="g118">
		<path
  d="m 396.653,418.893 c 5.361,1.385 10.415,1.428 15.95,1.428 5.873,0 12.937,0.498 18.256,-2.299 -3.938,-2.264 -7.883,-4.525 -11.821,-6.786 -0.312,9.575 -2.379,20.165 -0.128,29.59 1.826,-3.223 3.657,-6.445 5.489,-9.665 -9.203,2.314 -19.029,0.713 -28.237,3.109 3.223,1.829 6.44,3.658 9.663,5.486 -0.568,-2.046 0.22,-5.24 0.138,-7.404 -0.159,-4.284 -1.826,-8.287 -1.821,-12.604 -3.938,2.261 -7.883,4.522 -11.822,6.786 1.284,0.828 2.236,4.463 2.911,5.854 2.144,4.452 9.121,5.171 12.339,1.591 2.716,-3.021 3.622,-6.287 5.483,-9.775 -4.522,0 -9.044,0 -13.566,0 0.88,1.598 0.706,4.512 0.89,6.266 0.788,7.387 10.379,11.211 14.64,3.965 1.959,-3.33 2.788,-7.019 4.42,-10.477 -4.522,0 -9.044,0 -13.566,0 0.594,1.392 -0.69,5.715 -0.747,7.412 -0.21,6.219 6.757,9.441 11.822,6.786 4.046,-2.123 6.046,-6.358 7.621,-10.425 3.668,-9.465 -11.529,-13.523 -15.151,-4.18 -0.343,0.887 -1.54,1.632 -0.399,1.033 3.939,2.264 7.883,4.524 11.822,6.785 0.189,-5.619 0.879,-10.003 -1.402,-15.341 -2.256,-5.292 -11.208,-4.995 -13.566,0 -1.622,3.425 -2.506,7.224 -4.419,10.477 4.88,1.319 9.76,2.642 14.64,3.964 -0.511,-4.818 -0.655,-9.885 -3.039,-14.195 -2.793,-5.054 -10.804,-5.172 -13.566,0 -1.054,1.965 -1.54,4.938 -3.028,6.594 4.113,0.529 8.226,1.06 12.338,1.592 -2.205,-4.578 -4.133,-8.653 -8.548,-11.498 -5.085,-3.273 -11.812,1.031 -11.822,6.786 -0.005,4.401 0.895,8.612 1.836,12.894 0.824,3.747 -0.655,7.463 0.409,11.295 1.156,4.166 5.515,6.568 9.663,5.486 9.085,-2.363 19.06,-0.801 28.237,-3.11 4.256,-1.071 6.466,-5.573 5.489,-9.665 -0.88,-3.691 0.035,-7.791 0.035,-11.559 0,-4.658 0.502,-9.213 0.655,-13.853 0.204,-6.21 -6.758,-9.451 -11.822,-6.786 -1.846,0.973 -7.969,0.156 -10.328,0.156 -4.082,0 -7.836,0.148 -11.775,-0.864 -9.82,-2.531 -13.984,12.627 -4.173,15.151 z"
  id="path116" />
	</g>
	<g
  id="g124">
		<path
  fill="#f4e9e1"
  d="m 383.588,166.252 c 2.522,2.521 3.084,6.046 1.258,7.875 l -9.479,9.477 c -1.826,1.826 -5.355,1.266 -7.873,-1.254 l -34.089,-34.087 c -2.522,-2.519 -3.079,-6.049 -1.253,-7.872 l 9.474,-9.479 c 1.826,-1.826 5.361,-1.266 7.878,1.254 z"
  id="path120" />
		<path
  d="m 372.56,186.051 c -2.103,0 -4.302,-0.995 -6.036,-2.729 l -34.089,-34.086 c -1.734,-1.734 -2.732,-3.935 -2.732,-6.036 0,-1.51 0.512,-2.816 1.479,-3.78 l 9.474,-9.479 c 2.317,-2.319 6.845,-1.724 9.822,1.253 l 34.084,34.087 c 3.105,3.105 3.657,7.418 1.258,9.819 l -9.479,9.477 c -0.968,0.965 -2.272,1.474 -3.781,1.474 z m -28.125,-54.838 c -0.532,0 -1.284,0.115 -1.837,0.671 l -9.474,9.479 c -0.558,0.555 -0.67,1.305 -0.67,1.837 0,1.357 0.716,2.888 1.923,4.092 l 34.089,34.087 c 1.202,1.205 2.731,1.924 4.092,1.924 0.532,0 1.284,-0.115 1.836,-0.671 l 9.479,-9.476 c 1.263,-1.267 0.69,-3.982 -1.258,-5.932 l -34.084,-34.087 c -1.201,-1.205 -2.736,-1.924 -4.096,-1.924 z"
  id="path122" />
	</g>
	<g
  id="g128">
		<path
  d="m 337.688,145.266 c -0.322,0.319 -0.317,0.839 0,1.156 0.322,0.319 0.834,0.322 1.161,0 0.322,-0.32 0.317,-0.837 0,-1.156 -0.323,-0.321 -0.839,-0.321 -1.161,0 z m 10.241,-7.924 c 0.322,-0.32 0.317,-0.839 0,-1.156 -0.322,-0.319 -0.834,-0.322 -1.161,0 -0.317,0.319 -0.317,0.839 0,1.156 0.322,0.319 0.838,0.319 1.161,0 z m -5.832,3.513 c -0.317,0.32 -0.317,0.84 0,1.159 0.317,0.319 0.839,0.319 1.156,0 0.322,-0.322 0.322,-0.839 0,-1.159 -0.317,-0.316 -0.834,-0.319 -1.156,0 z m 0.89,5.551 c -0.317,0.322 -0.317,0.839 0,1.158 0.322,0.317 0.839,0.32 1.156,0 0.322,-0.319 0.322,-0.839 0,-1.158 -0.317,-0.317 -0.833,-0.319 -1.156,0 z m 4.727,-4.729 c -0.317,0.322 -0.312,0.839 0,1.159 0.322,0.316 0.839,0.319 1.156,0 0.327,-0.32 0.322,-0.839 0,-1.159 -0.312,-0.318 -0.834,-0.32 -1.156,0 z m -3.586,10.026 c -0.322,0.322 -0.317,0.839 0,1.159 0.317,0.319 0.839,0.322 1.161,0 0.317,-0.322 0.312,-0.837 0,-1.159 -0.322,-0.317 -0.839,-0.319 -1.161,0 z m 9.085,-9.08 c -0.327,0.322 -0.322,0.839 0,1.156 0.312,0.322 0.834,0.322 1.156,0 0.317,-0.319 0.317,-0.834 0,-1.156 -0.322,-0.319 -0.839,-0.319 -1.156,0 z m -4.675,4.676 c -0.317,0.319 -0.317,0.834 0,1.156 0.322,0.319 0.839,0.319 1.156,0 0.322,-0.322 0.322,-0.839 0,-1.156 -0.318,-0.322 -0.834,-0.322 -1.156,0 z m 0.889,5.548 c -0.322,0.319 -0.322,0.839 0,1.156 0.317,0.319 0.834,0.319 1.156,0 0.317,-0.32 0.317,-0.837 0,-1.156 -0.322,-0.321 -0.838,-0.323 -1.156,0 z m 4.727,-4.73 c -0.322,0.322 -0.317,0.839 0,1.156 0.317,0.322 0.839,0.322 1.161,0 0.317,-0.319 0.317,-0.837 0,-1.156 -0.322,-0.319 -0.838,-0.322 -1.161,0 z m -3.586,10.029 c -0.322,0.319 -0.317,0.836 0,1.155 0.317,0.32 0.839,0.32 1.156,0 0.322,-0.319 0.322,-0.839 0,-1.155 -0.317,-0.32 -0.833,-0.322 -1.156,0 z m 9.08,-9.083 c -0.317,0.322 -0.317,0.839 0,1.159 0.322,0.316 0.839,0.319 1.156,0 0.322,-0.32 0.322,-0.839 0,-1.159 -0.317,-0.319 -0.834,-0.319 -1.156,0 z m -4.67,4.673 c -0.322,0.32 -0.322,0.839 0,1.156 0.317,0.319 0.834,0.322 1.156,0 0.317,-0.319 0.317,-0.839 0,-1.156 -0.322,-0.319 -0.839,-0.319 -1.156,0 z m 0.89,5.551 c -0.322,0.319 -0.322,0.836 0,1.156 0.317,0.319 0.834,0.322 1.156,0 0.317,-0.32 0.317,-0.839 0,-1.156 -0.317,-0.322 -0.839,-0.322 -1.156,0 z m 4.732,-4.729 c -0.327,0.319 -0.322,0.836 0,1.156 0.312,0.319 0.834,0.322 1.156,0 0.317,-0.32 0.317,-0.837 0,-1.156 -0.322,-0.32 -0.839,-0.32 -1.156,0 z m -3.591,10.026 c -0.322,0.319 -0.322,0.839 0,1.156 0.322,0.319 0.833,0.322 1.156,0 0.322,-0.32 0.322,-0.839 0,-1.156 -0.323,-0.319 -0.834,-0.319 -1.156,0 z m 9.079,-9.08 c -0.322,0.319 -0.322,0.839 0,1.156 0.322,0.319 0.834,0.319 1.156,0 0.322,-0.319 0.322,-0.839 0,-1.156 -0.322,-0.319 -0.833,-0.322 -1.156,0 z m -4.675,4.671 c -0.317,0.322 -0.317,0.839 0,1.158 0.322,0.319 0.839,0.319 1.156,0 0.322,-0.322 0.322,-0.836 0,-1.158 -0.312,-0.318 -0.834,-0.321 -1.156,0 z m 0.89,5.55 c -0.317,0.319 -0.317,0.839 0,1.158 0.322,0.317 0.839,0.32 1.156,0 0.328,-0.322 0.322,-0.839 0,-1.158 -0.312,-0.318 -0.834,-0.32 -1.156,0 z m 4.732,-4.73 c -0.317,0.322 -0.317,0.839 0,1.159 0.322,0.317 0.839,0.319 1.156,0 0.322,-0.322 0.322,-0.839 0,-1.159 -0.317,-0.316 -0.834,-0.319 -1.156,0 z m -3.586,10.026 c -0.322,0.322 -0.322,0.839 0,1.159 0.317,0.319 0.834,0.322 1.156,0 0.317,-0.322 0.317,-0.837 0,-1.159 -0.322,-0.317 -0.839,-0.319 -1.156,0 z m 9.08,-9.08 c -0.322,0.322 -0.322,0.839 0,1.156 0.317,0.322 0.834,0.322 1.156,0 0.317,-0.319 0.317,-0.836 0,-1.156 -0.317,-0.319 -0.839,-0.319 -1.156,0 z m -4.675,4.673 c -0.317,0.322 -0.317,0.837 0,1.159 0.322,0.317 0.839,0.319 1.161,0 0.322,-0.322 0.317,-0.839 0,-1.159 -0.323,-0.319 -0.839,-0.319 -1.161,0 z m 2.03,10.851 c -0.317,0.319 -0.317,0.836 0,1.156 0.322,0.316 0.839,0.319 1.156,0 0.322,-0.32 0.322,-0.839 0,-1.156 -0.312,-0.32 -0.833,-0.322 -1.156,0 z m 9.08,-9.083 c -0.317,0.322 -0.317,0.837 0,1.159 0.322,0.317 0.839,0.319 1.156,0 0.328,-0.322 0.322,-0.839 0,-1.159 -0.312,-0.319 -0.834,-0.319 -1.156,0 z m -4.671,4.673 c -0.322,0.32 -0.317,0.839 0,1.156 0.317,0.32 0.839,0.32 1.162,0 0.317,-0.319 0.312,-0.839 0,-1.156 -0.322,-0.32 -0.839,-0.32 -1.162,0 z m -5.549,-0.89 c -0.322,0.319 -0.317,0.836 0,1.156 0.322,0.319 0.833,0.319 1.161,0 0.317,-0.32 0.317,-0.837 0,-1.156 -0.322,-0.319 -0.839,-0.322 -1.161,0 z m 4.731,-4.729 c -0.322,0.322 -0.322,0.837 0,1.156 0.322,0.322 0.834,0.322 1.156,0 0.322,-0.319 0.322,-0.836 0,-1.156 -0.322,-0.32 -0.834,-0.323 -1.156,0 z"
  id="path126" />
	</g>
	<g
  id="g134">
		<path
  fill="#f4e9e1"
  d="m 367.49,132.162 c 2.522,-2.52 6.046,-3.079 7.873,-1.253 l 9.479,9.477 c 1.826,1.828 1.263,5.355 -1.253,7.872 l -34.084,34.09 c -2.522,2.519 -6.052,3.079 -7.878,1.253 l -9.479,-9.477 c -1.821,-1.826 -1.269,-5.355 1.258,-7.878 z"
  id="path130" />
		<path
  d="m 344.435,186.048 c -1.509,0 -2.814,-0.509 -3.781,-1.476 l -9.479,-9.477 c -2.364,-2.368 -1.796,-6.772 1.258,-9.821 l 34.084,-34.084 c 2.982,-2.982 7.504,-3.561 9.817,-1.254 l 9.479,9.477 c 2.358,2.363 1.796,6.766 -1.253,9.816 l -34.084,34.09 c -1.734,1.735 -3.939,2.729 -6.041,2.729 z m 28.119,-54.837 c -1.355,0 -2.885,0.719 -4.092,1.923 l -34.084,34.085 c -1.949,1.946 -2.527,4.662 -1.258,5.937 l 9.479,9.474 c 0.553,0.555 1.305,0.67 1.837,0.67 1.36,0 2.89,-0.719 4.097,-1.924 l 34.084,-34.089 c 1.944,-1.946 2.517,-4.66 1.253,-5.929 l -9.479,-9.477 c -0.553,-0.555 -1.305,-0.67 -1.837,-0.67 z"
  id="path132" />
	</g>
	<g
  id="g138">
		<path
  d="m 346.501,178.063 c 0.322,0.322 0.839,0.316 1.161,0 0.317,-0.322 0.317,-0.837 0,-1.156 -0.327,-0.322 -0.839,-0.322 -1.161,0 -0.317,0.318 -0.322,0.834 0,1.156 z m -7.923,-10.239 c -0.322,-0.319 -0.834,-0.319 -1.156,0 -0.317,0.32 -0.322,0.837 0,1.159 0.322,0.322 0.839,0.317 1.156,0 0.322,-0.322 0.322,-0.837 0,-1.159 z m 3.514,5.832 c 0.322,0.319 0.844,0.317 1.156,0 0.322,-0.32 0.322,-0.837 0,-1.159 -0.317,-0.319 -0.834,-0.319 -1.156,0 -0.312,0.317 -0.317,0.839 0,1.159 z m 5.55,-0.89 c 0.322,0.32 0.844,0.317 1.156,0 0.322,-0.322 0.322,-0.839 0,-1.158 -0.317,-0.319 -0.834,-0.319 -1.156,0 -0.312,0.317 -0.317,0.835 0,1.158 z m -4.726,-4.729 c 0.322,0.319 0.839,0.316 1.156,0 0.322,-0.322 0.322,-0.837 0,-1.159 -0.317,-0.319 -0.834,-0.319 -1.156,0 -0.318,0.317 -0.323,0.837 0,1.159 z m 10.026,3.586 c 0.322,0.322 0.839,0.316 1.161,0 0.317,-0.32 0.317,-0.837 0,-1.156 -0.322,-0.32 -0.839,-0.32 -1.161,0 -0.317,0.317 -0.322,0.836 0,1.156 z m -9.08,-9.08 c 0.317,0.319 0.839,0.317 1.156,0 0.322,-0.32 0.322,-0.837 0,-1.156 -0.322,-0.322 -0.839,-0.322 -1.156,0 -0.317,0.317 -0.322,0.836 0,1.156 z m 4.67,4.673 c 0.322,0.319 0.844,0.317 1.156,0 0.322,-0.322 0.322,-0.836 0,-1.158 -0.317,-0.32 -0.834,-0.32 -1.156,0 -0.312,0.319 -0.317,0.836 0,1.158 z m 5.551,-0.89 c 0.322,0.322 0.839,0.316 1.156,0 0.327,-0.32 0.327,-0.837 0,-1.156 -0.322,-0.32 -0.834,-0.32 -1.156,0 -0.318,0.316 -0.323,0.836 0,1.156 z m -4.727,-4.729 c 0.322,0.322 0.834,0.317 1.156,0 0.322,-0.32 0.322,-0.837 0,-1.156 -0.322,-0.319 -0.834,-0.319 -1.156,0 -0.322,0.317 -0.322,0.835 0,1.156 z m 10.026,3.588 c 0.322,0.32 0.839,0.317 1.156,0 0.322,-0.319 0.322,-0.836 0,-1.155 -0.317,-0.322 -0.833,-0.322 -1.156,0 -0.317,0.314 -0.317,0.835 0,1.155 z m -9.08,-9.08 c 0.322,0.319 0.839,0.316 1.156,0 0.322,-0.32 0.322,-0.837 0,-1.159 -0.317,-0.319 -0.834,-0.319 -1.156,0 -0.317,0.318 -0.322,0.839 0,1.159 z m 4.671,4.67 c 0.317,0.322 0.839,0.317 1.156,0 0.322,-0.319 0.322,-0.836 0,-1.156 -0.322,-0.319 -0.839,-0.319 -1.156,0 -0.318,0.318 -0.323,0.837 0,1.156 z m 5.55,-0.889 c 0.317,0.322 0.839,0.319 1.161,0 0.317,-0.32 0.317,-0.837 0,-1.156 -0.327,-0.322 -0.844,-0.322 -1.161,0 -0.317,0.317 -0.322,0.835 0,1.156 z m -4.727,-4.73 c 0.317,0.322 0.839,0.319 1.156,0 0.317,-0.32 0.317,-0.834 0,-1.156 -0.322,-0.322 -0.839,-0.322 -1.156,0 -0.322,0.317 -0.322,0.836 0,1.156 z m 10.026,3.588 c 0.323,0.322 0.839,0.32 1.156,0 0.322,-0.322 0.322,-0.833 0,-1.155 -0.322,-0.322 -0.833,-0.322 -1.156,0 -0.322,0.316 -0.322,0.833 0,1.155 z m -9.079,-9.082 c 0.317,0.325 0.833,0.319 1.156,0 0.317,-0.319 0.317,-0.834 0,-1.156 -0.322,-0.319 -0.839,-0.319 -1.156,0 -0.323,0.32 -0.323,0.837 0,1.156 z m 4.67,4.676 c 0.322,0.319 0.839,0.317 1.156,0 0.322,-0.322 0.322,-0.837 0,-1.156 -0.317,-0.322 -0.833,-0.322 -1.156,0 -0.317,0.314 -0.322,0.834 0,1.156 z m 5.545,-0.891 c 0.328,0.32 0.844,0.317 1.161,0 0.322,-0.322 0.322,-0.836 0,-1.158 -0.317,-0.32 -0.833,-0.32 -1.161,0 -0.312,0.317 -0.317,0.836 0,1.158 z m -4.727,-4.728 c 0.322,0.319 0.844,0.316 1.156,0 0.322,-0.32 0.322,-0.837 0,-1.159 -0.317,-0.319 -0.834,-0.319 -1.156,0 -0.312,0.317 -0.317,0.838 0,1.159 z m 10.032,3.586 c 0.317,0.322 0.839,0.316 1.156,0 0.317,-0.32 0.317,-0.837 0,-1.156 -0.322,-0.32 -0.839,-0.32 -1.156,0 -0.317,0.317 -0.323,0.835 0,1.156 z m -9.08,-9.08 c 0.317,0.319 0.839,0.317 1.156,0 0.317,-0.32 0.317,-0.837 0,-1.156 -0.322,-0.322 -0.839,-0.322 -1.156,0 -0.322,0.317 -0.322,0.835 0,1.156 z m 4.671,4.672 c 0.322,0.319 0.839,0.317 1.156,0 0.322,-0.322 0.322,-0.837 0,-1.159 -0.317,-0.319 -0.833,-0.319 -1.156,0 -0.318,0.321 -0.323,0.837 0,1.159 z m 10.844,-2.031 c 0.322,0.32 0.844,0.317 1.156,0 0.322,-0.319 0.322,-0.836 0,-1.156 -0.317,-0.322 -0.833,-0.322 -1.156,0 -0.312,0.315 -0.317,0.837 0,1.156 z m -9.08,-9.08 c 0.322,0.32 0.844,0.317 1.156,0 0.322,-0.319 0.322,-0.836 0,-1.158 -0.317,-0.319 -0.834,-0.319 -1.156,0 -0.312,0.317 -0.317,0.839 0,1.158 z m 4.675,4.671 c 0.317,0.322 0.839,0.317 1.156,0 0.317,-0.319 0.317,-0.837 0,-1.156 -0.322,-0.319 -0.839,-0.319 -1.156,0 -0.322,0.317 -0.322,0.837 0,1.156 z m -0.889,5.55 c 0.322,0.322 0.833,0.317 1.156,0 0.322,-0.319 0.322,-0.836 0,-1.155 -0.322,-0.32 -0.833,-0.32 -1.156,0 -0.322,0.316 -0.322,0.836 0,1.155 z m -4.732,-4.729 c 0.322,0.322 0.839,0.316 1.156,0 0.322,-0.32 0.322,-0.837 0,-1.156 -0.317,-0.32 -0.833,-0.32 -1.156,0 -0.318,0.317 -0.318,0.836 0,1.156 z"
  id="path136" />
	</g>
</g>
</svg>
