<?xml version="1.0" encoding="UTF-8" standalone="no"?>
<svg
   xmlns:dc="http://purl.org/dc/elements/1.1/"
   xmlns:cc="http://creativecommons.org/ns#"
   xmlns:rdf="http://www.w3.org/1999/02/22-rdf-syntax-ns#"
   xmlns:svg="http://www.w3.org/2000/svg"
   xmlns="http://www.w3.org/2000/svg"
   xmlns:sodipodi="http://sodipodi.sourceforge.net/DTD/sodipodi-0.dtd"
   xmlns:inkscape="http://www.inkscape.org/namespaces/inkscape"
   viewBox="0 0 569.87 217.53"
   version="1.1"
   id="svg934"
   sodipodi:docname="logo.svg"
   inkscape:version="1.0.1 (3bc2e813f5, 2020-09-07)">
  <metadata
     id="metadata938">
    <rdf:RDF>
      <cc:Work
         rdf:about="">
        <dc:format>image/svg+xml</dc:format>
        <dc:type
           rdf:resource="http://purl.org/dc/dcmitype/StillImage" />
      </cc:Work>
    </rdf:RDF>
  </metadata>
  <sodipodi:namedview
     pagecolor="#ffffff"
     bordercolor="#666666"
     borderopacity="1"
     objecttolerance="10"
     gridtolerance="10"
     guidetolerance="10"
     inkscape:pageopacity="0"
     inkscape:pageshadow="2"
     inkscape:window-width="2560"
     inkscape:window-height="1371"
     id="namedview936"
     showgrid="false"
     inkscape:zoom="1.169565"
     inkscape:cx="428.12707"
     inkscape:cy="79.720223"
     inkscape:window-x="0"
     inkscape:window-y="32"
     inkscape:window-maximized="1"
     inkscape:current-layer="Calque_1" />
  <defs
     id="defs907">
    <style
       id="style905">.cls-1{isolation:isolate;}.cls-2{fill:#e05d11;}.cls-2,.cls-3,.cls-5,.cls-6{opacity:0.9;}.cls-2,.cls-3,.cls-4,.cls-5,.cls-6{mix-blend-mode:luminosity;}.cls-3{fill:#589ebc;}.cls-4{fill:#50bfd5;}.cls-5{fill:#8f9aa8;}.cls-6{fill:#ffe20f;}.cls-7{fill:#333;}</style>
  </defs>
  <g
     class="cls-1"
     id="g932">
    <g
       id="Calque_1"
       data-name="Calque 1">
      <g
         id="g1513">
        <path
           class="cls-2"
           d="M162.83,154.68A59.46,59.46,0,1,1,84.73,98.2a59.53,59.53,0,0,0,76.87,44.39A59.38,59.38,0,0,1,162.83,154.68Z"
           id="path909" />
        <path
           class="cls-3"
           d="M161.6,142.59a59.55,59.55,0,0,1-58.22-12.11A59.48,59.48,0,0,0,122,98.2,59.54,59.54,0,0,1,161.6,142.59Z"
           id="path911" />
        <path
           class="cls-4"
           d="M202.43,86.11a59.5,59.5,0,0,1-40.83,56.48A59.49,59.49,0,0,0,84.73,98.2a59.47,59.47,0,1,1,117.7-12.09Z"
           id="path913" />
        <path
           class="cls-5"
           d="M122,98.2a59.48,59.48,0,0,1-18.64,32.28A59.34,59.34,0,0,1,84.73,98.2a59.63,59.63,0,0,1,37.29,0Z"
           id="path915" />
        <path
           class="cls-6"
           d="M103.37,95.21a59.22,59.22,0,0,0-18.64,3,59.34,59.34,0,0,0,18.65,32.28A59.31,59.31,0,1,1,122,98.2,59.33,59.33,0,0,0,103.37,95.21Z"
           id="path917" />
      </g>
      <path
         class="cls-5"
         d="M342.37,151.33a7.81,7.81,0,0,1,2.5-6,9.69,9.69,0,0,1,12.56,0,7.81,7.81,0,0,1,2.5,6,7.69,7.69,0,0,1-2.47,5.93,9,9,0,0,1-6.34,2.29,8.85,8.85,0,0,1-6.28-2.29A7.69,7.69,0,0,1,342.37,151.33Z"
         id="path923" />
      <g
         id="colabText">
        <path
           class="cls-7"
           d="m 254.19,154.61 a 17,17 0 0 0 11.25,-3.79 13.32,13.32 0 0 0 4.92,-9.8 h 6.18 a 18.14,18.14 0 0 1 -3.34,9.69 20.87,20.87 0 0 1 -8.13,6.85 24.51,24.51 0 0 1 -10.88,2.44 q -11.44,0 -18.13,-7.95 -6.69,-7.95 -6.68,-21.38 v -1.93 a 36.39,36.39 0 0 1 3,-15.2 23.14,23.14 0 0 1 8.63,-10.2 23.76,23.76 0 0 1 13.13,-3.6 q 9.56,0 15.76,5.69 6.2,5.69 6.64,15 h -6.18 a 15.55,15.55 0 0 0 -16.22,-15.2 q -8.7,0 -13.51,6.28 -4.81,6.28 -4.81,17.62 V 131 q 0,11.11 4.81,17.35 4.81,6.24 13.56,6.26 z"
           id="path919" />
        <path
           class="cls-7"
           d="m 285.83,129 a 34.1,34.1 0 0 1 3.25,-15 24.39,24.39 0 0 1 22.64,-14.18 q 11.59,0 18.8,8.13 7.21,8.13 7.19,21.57 v 1.34 a 34.43,34.43 0 0 1 -3.25,15.14 24.23,24.23 0 0 1 -9.16,10.4 25.12,25.12 0 0 1 -13.48,3.6 q -11.55,0 -18.77,-8.14 -7.22,-8.14 -7.22,-21.56 z m 6.44,1.77 q 0,10.42 5.4,17.11 a 18.26,18.26 0 0 0 28.25,0 q 5.4,-6.69 5.4,-17.65 V 129 a 29.51,29.51 0 0 0 -2.47,-12.19 19.87,19.87 0 0 0 -6.93,-8.57 17.71,17.71 0 0 0 -10.2,-3 17.15,17.15 0 0 0 -14,6.74 q -5.43,6.74 -5.43,17.64 z"
           id="path921" />
        <path
           class="cls-7"
           d="m 386.65,146 h 34.22 v 13 H 370.54 V 80.75 h 16.11 z"
           id="path925" />
        <path
           class="cls-7"
           d="M 475.28,142.84 H 447 L 441.65,159 h -17.13 l 29.11,-78.21 h 14.93 L 497.84,159 H 480.7 Z m -23.91,-13.05 h 19.56 l -9.83,-29.27 z"
           id="path927" />
        <path
           class="cls-7"
           d="M 505.14,159 V 80.75 h 27.39 q 14.24,0 21.59,5.45 7.35,5.45 7.36,16 a 17.66,17.66 0 0 1 -3,10.13 17.06,17.06 0 0 1 -8.22,6.42 16.47,16.47 0 0 1 9.48,6.07 17.92,17.92 0 0 1 3.52,11.18 q 0,11.28 -7.2,17.08 -7.2,5.8 -20.52,5.92 z m 16.11,-45.44 h 11.93 q 12.18,-0.22 12.19,-9.73 0,-5.31 -3.09,-7.65 -3.09,-2.34 -9.75,-2.34 h -11.28 z m 0,11.38 V 146 h 13.81 c 3.79,0 6.76,-0.9 8.89,-2.71 a 9.31,9.31 0 0 0 3.19,-7.49 q 0,-10.74 -11.12,-10.91 z"
           id="path929" />
      </g>
    </g>
  </g>
</svg>
