<svg xmlns="http://www.w3.org/2000/svg" viewBox="0 0 206.68 217.53"><defs><style>.cls-1{isolation:isolate;}.cls-2{fill:#e05d11;}.cls-2,.cls-3,.cls-5,.cls-6{opacity:0.9;}.cls-2,.cls-3,.cls-4,.cls-5,.cls-6{mix-blend-mode:luminosity;}.cls-3{fill:#589ebc;}.cls-4{fill:#50bfd5;}.cls-5{fill:#8f9aa8;}.cls-6{fill:#ffe20f;}</style></defs><g class="cls-1"><g id="Calque_1" data-name="Calque 1"><path class="cls-2" d="M162.83,154.68A59.46,59.46,0,1,1,84.73,98.2a59.53,59.53,0,0,0,76.87,44.39A59.38,59.38,0,0,1,162.83,154.68Z"/><path class="cls-3" d="M161.6,142.59a59.55,59.55,0,0,1-58.22-12.11A59.48,59.48,0,0,0,122,98.2,59.54,59.54,0,0,1,161.6,142.59Z"/><path class="cls-4" d="M202.43,86.11a59.5,59.5,0,0,1-40.83,56.48A59.49,59.49,0,0,0,84.73,98.2a59.47,59.47,0,1,1,117.7-12.09Z"/><path class="cls-5" d="M122,98.2a59.48,59.48,0,0,1-18.64,32.28A59.34,59.34,0,0,1,84.73,98.2a59.63,59.63,0,0,1,37.29,0Z"/><path class="cls-6" d="M103.37,95.21a59.22,59.22,0,0,0-18.64,3,59.34,59.34,0,0,0,18.65,32.28A59.31,59.31,0,1,1,122,98.2,59.33,59.33,0,0,0,103.37,95.21Z"/></g></g></svg>